<?xml version="1.0" encoding="utf-8"?>
<!-- Generator: Adobe Illustrator 19.0.0, SVG Export Plug-In . SVG Version: 6.00 Build 0)  -->
<svg version="1.1" xmlns="http://www.w3.org/2000/svg" xmlns:xlink="http://www.w3.org/1999/xlink" x="0px" y="0px"
	 viewBox="0 0 600 600" enable-background="new 0 0 600 600" xml:space="preserve">
<g id="FLOOR">
	<g id="XMLID_214_">
		<path id="XMLID_146_" fill="#FEC272" d="M95.8,411.5c0,8,4,12.1,20.4,13.3c16.4,1.2,22.9,4.8,18.3,6.3s-23.3,0.2-27.5,7.5
			c-4.2,7.2,12.6,11.1,34,11.1s111.6,0,141.4,0s53.7-5.8,53.7-15c0-9.2-17.2-10.6-24.3-14c-7.1-3.4-2.9-12.1,10.9-12.1
			c13.8,0,33.6,0,46.6,0c13,0,15.9,6.8,7.1,8.2c-8.8,1.4-10.5,12.6,10.5,12.6s73.4,0,93.6,0s31.1-11.6,21.4-19.8
			c-9.7-8.2-2.9-13,11.3-15c14.3-1.9,28.5-3.4,28.5-15.9s-22.2-16.9-38.6-16.9s-23.5-3.9-23.5-9.2c0-5.3-8-9.2-33.1-9.2
			s-148.1,0-208.6,0s-56.2,0-68.3,0s-18.7,10.6-10.1,14.8c8.7,4.2,18.5-0.3,20.7,7.4c2.2,7.7-2.8,9-20.4,9s-33.8,0-46.4,0
			c-37.5,0-37.8,20-13.7,20C114.3,394.6,95.8,403.6,95.8,411.5z"/>
		<ellipse id="XMLID_145_" fill="#FEC272" cx="81.9" cy="437.4" rx="17.4" ry="5.6"/>
		<ellipse id="XMLID_161_" fill="#FEC272" cx="352.6" cy="424.3" rx="12.4" ry="4"/>
		<ellipse id="XMLID_162_" fill="#FEC272" cx="524.2" cy="402.1" rx="12.4" ry="4"/>
	</g>
</g>
<g id="BODY">
	<g id="XMLID_20_">
		<g id="XMLID_85_">
			<path id="XMLID_93_" fill="#99ADF9" d="M288.2,266.3c0,0-7.3-13-1.9-16.1s11.4,2.9,11.4,2.9s-6.1-14.1,0.9-18.3
				c7-4.2,18.2,11,18.2,11L288.2,266.3z"/>
			<path id="XMLID_266_" fill="#7791E5" d="M316.8,248.6c0,0-9.7-15.4-1-19.2c5.7-2.5,14.7,7.2,14.7,7.2s-3.8-9,3.7-12.1
				c7.5-3.1,14,9.4,14,9.4L316.8,248.6z"/>
		</g>
		<g id="XMLID_98_">
			<path id="XMLID_240_" fill="#99ADF9" d="M120.5,342.1c0,0-4.6-10.4-0.3-12.3c4.3-1.9,8.5,3,8.5,3s-3.6-11.1,2-13.8s13,9.6,13,9.6
				L120.5,342.1z"/>
			<path id="XMLID_238_" fill="#7791E5" d="M143.4,331c0,0-4.5-14.4,0.1-15.7c4.6-1.3,9.3,7.7,9.3,7.7s-1.5-10.3,4.4-12.1
				c5.9-1.8,11,10.2,11,10.2L143.4,331z"/>
		</g>
		<g id="XMLID_95_">
			<path id="XMLID_267_" fill="#99ADF9" d="M436.8,262.2c0,0,6.7-8.7,10.4-5.9c3.6,2.8,1.3,8.6,1.3,8.6s7.8-8.2,12.7-4.7
				s-2.2,15.5-2.2,15.5L436.8,262.2z"/>
			<path id="XMLID_246_" fill="#7791E5" d="M457,275.7c0,0,10.2-10.4,13.4-7.1s-2.2,11.5-2.2,11.5s8.1-6,12.4-1.8
				c4.3,4.2-3.6,14.1-3.6,14.1L457,275.7z"/>
		</g>
		<path id="XMLID_290_" fill="#FF97C9" d="M513.6,384.8c-1.5,0.5-2.8,0.7-3.9,0.7c-0.2,0-0.4,0-0.6,0c-3.3-0.5-4.9-3.9-8.3-11
			c-4.7-9.7-15.3-16.4-42.1-18.2c-26.8-1.8-70.5,29.7-118.7,29.6c-1.2,0-2.3,0-3.5,0c-0.9,0-1.7,0-2.6,0c-1.4,0-2.8,0-4.3-0.1
			c-1.1,0-2.3-0.1-3.4-0.1c-1.1,0-2.2-0.1-3.3-0.1H323c-2.2-0.1-4.4-0.2-6.5-0.2c-2.2-0.1-4.3-0.2-6.5-0.3c-2.1-0.1-4.2-0.2-6.3-0.4
			c-1-0.1-2-0.1-3-0.2c-3.6-0.2-7.2-0.5-10.6-0.8c-0.8-0.1-1.7-0.1-2.5-0.2c-1.1-0.1-2.3-0.2-3.4-0.3c-1.1-0.1-2.2-0.2-3.3-0.3
			c-3.8-0.4-7.6-0.8-11.2-1.2c-0.5-0.1-1-0.1-1.5-0.2c-4.1-0.5-7.9-1-11.6-1.5c-0.8-0.1-1.6-0.2-2.4-0.3c-2.8-0.4-5.6-0.8-8.2-1.2
			c-0.4-0.1-0.8-0.1-1.2-0.2c-1.6-0.3-3.2-0.5-4.7-0.8c-0.6-0.1-1.2-0.2-1.8-0.3c-0.5-0.1-1-0.2-1.6-0.3
			c-16.6-2.9-26.3-5.4-26.3-5.4s-33.5-4.5-54.6-3.3c-14.9,0.9-30,3.7-38.4,0.4c-0.9-0.4-1.8-0.9-2.6-1.4c-0.1-0.1-0.3-0.2-0.4-0.3
			c-2.7-2.2-4.1-5.8-3.4-11.4c0.5-4.2,2.4-7.9,5.3-11.2c9-10.4,27.2-17,40.6-21.3c17.7-5.7,42.6-12.2,42.6-12.2s66.9-26.6,93.5-50.1
			c31.1-27.5,77.9-49.1,115.2-24.8c34.2,22.3,71.6,52.5,96.2,87c10.6,14.9,15.1,28,16.1,38.4C522,374.9,517.6,383.6,513.6,384.8z"/>
		<path id="XMLID_84_" fill="#F982C6" d="M509.7,385.6c-0.2,0-0.4,0-0.6,0c-3.3-0.5-4.9-3.9-8.3-11c-4.7-9.7-15.3-16.4-42.1-18.2
			c-26.8-1.8-70.5,29.7-118.7,29.6c-1.2,0-2.3,0-3.5,0c-0.9,0-1.7,0-2.6,0c-1.4,0-2.8,0-4.3-0.1c-1.1,0-2.3,0-3.4-0.1
			c-1.1,0-2.2-0.1-3.3-0.1H323c-2.2-0.1-4.4-0.2-6.5-0.2c-2.2-0.1-4.3-0.2-6.5-0.3c-2.1-0.1-4.2-0.2-6.3-0.4c-1-0.1-2-0.1-3-0.2
			c-3.6-0.2-7.2-0.5-10.6-0.8c-0.8-0.1-1.7-0.1-2.5-0.2c-1.1-0.1-2.3-0.2-3.4-0.3c-1.1-0.1-2.2-0.2-3.3-0.3
			c-3.8-0.4-7.6-0.8-11.1-1.2c-0.5-0.1-1-0.1-1.5-0.2c-4.1-0.5-7.9-1-11.6-1.5c-0.8-0.1-1.6-0.2-2.4-0.3c-2.8-0.4-5.6-0.8-8.2-1.2
			c-0.4-0.1-0.8-0.1-1.2-0.2c-1.6-0.3-3.2-0.5-4.8-0.8c-0.6-0.1-1.2-0.2-1.8-0.3c-0.5-0.1-1.1-0.2-1.6-0.3
			c-16.6-2.9-26.3-5.4-26.3-5.4s-33.5-4.5-54.6-3.3c-16.6,1-33.5,4.4-40.9-1c-0.1-0.1-0.3-0.2-0.4-0.3c0.3-1,0.7-2.1,1.3-3.1
			c6.8-12.6,33.8-16.2,66.6-18.5s74.3,0.5,102.2-6.8c27.9-7.2,56.7-28.8,94.5-35.1s82.6,11,111.9,34.4
			C517.2,358.8,511.2,381.3,509.7,385.6z"/>
		<path id="XMLID_279_" fill="#FFCAE8" d="M509.1,385.5c-3.3-0.5-4.9-3.9-8.3-11c-2.8-5.7-7.6-10.4-16.6-13.7
			c-1.1-0.4-2.3-0.8-3.6-1.2c-5.7-1.7-12.9-2.8-21.9-3.4c-1.2-0.1-2.3-0.1-3.5-0.1h0c-1.1,0-2.3,0.1-3.4,0.3
			c-20.9,2.3-49.9,18.7-82.4,26c-1.3,0.3-2.6,0.6-3.9,0.8c-8.2,1.6-16.6,2.6-25.2,2.6H340c-1.2,0-2.3,0-3.5,0h0c-0.9,0-1.7,0-2.6,0
			c-1.4,0-2.8,0-4.3-0.1c-1.1,0-2.3,0-3.4-0.1c-1.1,0-2.2-0.1-3.3-0.1H323c-2.2-0.1-4.4-0.2-6.5-0.2c-1.2-0.1-2.4-0.1-3.7-0.2
			c-0.9,0-1.9-0.1-2.8-0.1c-0.3,0-0.5,0-0.8,0c-1.8-0.1-3.7-0.2-5.5-0.3c-1-0.1-2-0.1-3-0.2c-3.6-0.2-7.2-0.5-10.6-0.8
			c-0.8-0.1-1.7-0.1-2.5-0.2c-1.1-0.1-2.3-0.2-3.4-0.3c-1.1-0.1-2.2-0.2-3.3-0.3c-3.8-0.4-7.6-0.8-11.1-1.2c-0.5-0.1-1-0.1-1.5-0.2
			c-4.1-0.5-7.9-1-11.6-1.5c-0.8-0.1-1.6-0.2-2.4-0.3c-2.8-0.4-5.6-0.8-8.2-1.2c-0.4-0.1-0.8-0.1-1.2-0.2c-1.6-0.3-3.2-0.5-4.8-0.8
			c-0.6-0.1-1.2-0.2-1.8-0.3c-0.4-0.1-0.9-0.2-1.3-0.2c-0.1,0-0.2,0-0.3,0c-1.1-0.2-2.2-0.4-3.3-0.6c-14.6-2.6-23-4.8-23-4.8
			s-1.8-0.2-4.9-0.6c-1.1-0.1-2.3-0.3-3.6-0.4c-6-0.7-14.4-1.5-23.2-2c-1.2-0.1-2.4-0.1-3.6-0.2c-6.7-0.3-13.5-0.4-19.3-0.1
			c-16.6,1-33.5,4.4-40.9-1c0.8-2.7,2.8-5.6,7-8.3c10.3-6.6,21.3-15.1,53.1-12.9c1.2,0.1,2.4,0.2,3.7,0.3c6.7,0.6,14.3,1.7,22.9,3.3
			c1.2,0.2,2.5,0.5,3.8,0.7c0.4,0.1,0.8,0.2,1.3,0.3c6.9,1.4,16.3,2.9,27.3,4.3c1.2,0.1,2.4,0.3,3.6,0.4c20.1,2.3,45.3,4.1,71.3,3.9
			c1.2,0,2.4,0,3.6,0c3.8,0,7.6-0.1,11.3-0.3c4.4-0.2,8.6-0.4,12.6-0.7c1.2-0.1,2.4-0.2,3.6-0.3c9.5-0.9,18.2-2.2,26.2-3.7
			c1.2-0.2,2.4-0.5,3.6-0.7c32.9-6.7,54.7-16.9,83.1-17.3c1.2,0,2.4,0,3.7,0c0.7,0,1.5,0,2.2,0.1c10.7,0.4,19.3,2.4,26.2,5.4
			c1.2,0.5,2.4,1.1,3.5,1.7c15.8,8.6,20.9,22.8,21.7,32C510.5,379.4,510,382.8,509.1,385.5z"/>
		<g id="XMLID_221_">
			<path id="XMLID_78_" fill="#F982C6" d="M364.7,251.8c-7.6-0.8-18.4,4.6-18,12.7s13.3,7.2,22.2,2.5
				C377.9,262.2,377.1,253,364.7,251.8z"/>
			<path id="XMLID_79_" fill="#F982C6" d="M366.2,276.3c-2.6,1.1-5.4,4.8-4.1,7c1.3,2.2,7.3-0.5,8.8-3.9
				C371.8,277.4,370.6,274.4,366.2,276.3z"/>
			<path id="XMLID_136_" fill="#F982C6" d="M340.5,249.9c-1.7,0.4-3.7,2.3-3.1,3.7c0.6,1.4,4.3,0.4,5.6-1.5
				C343.6,251.1,343.2,249.2,340.5,249.9z"/>
			<path id="XMLID_247_" fill="#F982C6" d="M334.4,261.5c-2.4,0.6-5.4,3.4-4.5,5.5c0.8,2.1,6.4,0.6,8.2-2.1
				C339,263.3,338.4,260.5,334.4,261.5z"/>
		</g>
		<g id="XMLID_222_">
			<path id="XMLID_80_" fill="#F982C6" d="M437.7,270c-7.4-2.1-18.9,1.4-20,9.4c-1.1,8,11.9,9.4,21.4,6.3
				C448.9,282.5,449.8,273.4,437.7,270z"/>
			<path id="XMLID_81_" fill="#F982C6" d="M447.3,292.3c-3.6,0.5-6.2,3.8-5.2,6.8c1,3,7.4,1.9,10.2-1.7
				C453.8,295.4,453.2,291.4,447.3,292.3z"/>
		</g>
		<g id="XMLID_224_">
			<path id="XMLID_82_" fill="#F982C6" d="M258.3,297.9c-5,4.2-5.9,11-2,14.7c3.8,3.7,15.3-3.5,18-12.3
				C276.5,292.9,269.4,288.4,258.3,297.9z"/>
			<path id="XMLID_83_" fill="#F982C6" d="M282.6,313.1c-1.7,1.4-2,3.7-0.7,5c1.3,1.3,5.2-1.2,6.1-4.2
				C288.8,311.5,286.4,309.9,282.6,313.1z"/>
			<path id="XMLID_86_" fill="#F982C6" d="M283.9,296.4c-1.4,1-1.8,2.8-0.9,3.9c0.9,1.1,4.2-0.6,5.1-2.9
				C288.9,295.5,287.1,294.1,283.9,296.4z"/>
			<path id="XMLID_89_" fill="#F982C6" d="M260.1,319.5c-3.2,2.3-4,6.3-1.9,8.7s9.3-1.3,11.3-6.4
				C271.2,317.5,267.2,314.4,260.1,319.5z"/>
		</g>
		<path id="XMLID_152_" fill="#FFBDE6" d="M509.7,385.6c-0.2,0-0.4,0-0.6,0c-3.3-0.5-4.9-3.9-8.3-11c-4.7-9.7-15.3-16.4-42.1-18.2
			c-26.8-1.8-70.5,29.7-118.7,29.6c-1.2,0-2.3,0-3.5,0c-0.9,0-1.7,0-2.6,0c-1.4,0-2.8,0-4.3-0.1c-1.1,0-2.3,0-3.4-0.1
			c-1.1,0-2.2-0.1-3.3-0.1H323c-2.2-0.1-4.4-0.2-6.5-0.2c-2.2-0.1-4.3-0.2-6.5-0.3c-2.1-0.1-4.2-0.2-6.3-0.4c-1-0.1-2-0.1-3-0.2
			c-3.6-0.2-7.2-0.5-10.6-0.8c-0.8-0.1-1.7-0.1-2.5-0.2c-1.1-0.1-2.3-0.2-3.4-0.3c-1.1-0.1-2.2-0.2-3.3-0.3
			c-3.8-0.4-7.6-0.8-11.1-1.2c-0.5-0.1-1-0.1-1.5-0.2c-4.1-0.5-7.9-1-11.6-1.5c-0.8-0.1-1.6-0.2-2.4-0.3c-2.8-0.4-5.6-0.8-8.2-1.2
			c-0.4-0.1-0.8-0.1-1.2-0.2c-1.6-0.3-3.2-0.5-4.8-0.8c-0.6-0.1-1.2-0.2-1.8-0.3c-0.5-0.1-1.1-0.2-1.6-0.3
			c-16.6-2.9-26.3-5.4-26.3-5.4s-33.5-4.5-54.6-3.3c-14.9,0.9-30,3.7-38.4,0.4c7.1-3.1,23.6-6.8,46.5-7.3
			c27.3-0.6,73.8,10.8,117.3,14.4c43.5,3.6,80.4,5.1,125.1-11.1c44.7-16.2,63.3-15.9,83.1-6.6C509.2,367.3,509.7,385.6,509.7,385.6z
			"/>
		<g id="XMLID_219_">
			<path id="XMLID_160_" fill="#FF97C9" d="M276.1,414.1c-32.4,25.5-81.9,18.3-84.6,8.1c-2.3-8.8,2-6.2,22-16.2
				c3.3-1.6,6.9-3.6,11-6c29.4-17.1,12.3-49.8,35.7-60c14.1-6.2,25.1-6.3,32.7-1.6c5,3.1,8.5,8.3,10.6,15.4
				C307.7,368.9,308.5,388.6,276.1,414.1z"/>
			<path id="XMLID_154_" fill="#F982C6" d="M276.1,414.1c-32.4,25.5-81.9,18.3-84.6,8.1c-2.3-8.8,38.1,19.4,86-23.9
				c19.9-17.9,17.4-49.9,15.3-59.9c5,3.1,8.5,8.3,10.6,15.4C307.7,368.9,308.5,388.6,276.1,414.1z"/>
			<g id="XMLID_24_">
				<path id="XMLID_30_" fill="#F774B9" d="M222,433.2c-21,0-31.1-9.3-31.6-9.8c-0.1-0.1-0.1-0.1-0.2-0.2c-0.3-0.4-2.6-3.6-1.7-6.8
					c0.3-1.2,1.3-2.8,3.8-3.7c0.7-0.3,1.9-0.6,3.5-1c7.6-1.9,25.5-6.3,35.8-19.9c8.2-10.9,9.8-18.8,11.4-26.5
					c0.8-4,1.6-7.7,3.2-11.6c4.8-11.6,12.3-15.3,12.6-15.5c0.8-0.4,1.7-0.1,2.1,0.7c0.4,0.8,0.1,1.7-0.7,2.1
					c-0.1,0-6.7,3.5-11.1,13.9c-1.5,3.6-2.2,7.2-3,11c-1.6,7.6-3.3,16.3-12,27.8c-11,14.6-29.6,19.1-37.5,21.1
					c-1.5,0.4-2.6,0.6-3.2,0.9c-1.6,0.6-1.8,1.4-1.9,1.7c-0.4,1.3,0.6,3.2,1.1,3.9c1.5,1.3,20.6,16.9,59.7,3.2
					c48.8-17.2,51.6-54.4,51.7-58.6c0.5-13.8-7.9-25.4-16-27.5c-0.8-0.2-1.3-1.1-1.1-1.9c0.2-0.8,1.1-1.3,1.9-1.1
					c9.2,2.4,18.9,14.9,18.3,30.7c-0.2,4.4-3,43.6-53.8,61.4C241,431.6,230.6,433.2,222,433.2z"/>
			</g>
		</g>
		<g id="XMLID_220_">
			<path id="XMLID_137_" fill="#FF97C9" d="M120.4,381.7c-10.8,1.2-24.9,14.1-15,28.5c9.9,14.4,42.9,18,56.4,16.5
				c13.5-1.5,18.6-5.1,20.7-11.7c2.1-6.6-11.3-5.6-28.5-19.8C139.9,383.5,130.2,380.6,120.4,381.7z"/>
			<path id="XMLID_138_" fill="#F982C6" d="M115.9,399.9c5,5.7,24.2,16.4,40.5,17.8c22.7,2,28.3-2,9.2-8.4s-24.4-8.7-33.7-15.9
				C120,384.2,107.4,390.1,115.9,399.9z"/>
			<g id="XMLID_25_">
				<path id="XMLID_29_" fill="#F774B9" d="M153.5,428.4c-14.7,0-34.4-3.5-46.4-14.5c-4.9-4.5-7.2-9.3-6.8-14.4
					c0.8-9.5,10.8-16.2,11.3-16.5c0.7-0.5,1.7-0.3,2.2,0.4c0.5,0.7,0.3,1.7-0.4,2.2c-0.1,0.1-9.2,6.1-9.9,14.2
					c-0.3,4.1,1.6,8,5.8,11.8c15.7,14.3,45.2,15.2,57.5,12.5c8.4-1.8,12.8-5.4,14.1-8c0.6-1.2,0.7-2.3,0.2-3.3
					c-1.4-3.1-6.7-3.9-8.6-4c-0.9,0-1.5-0.8-1.5-1.6c0-0.9,0.7-1.6,1.6-1.5c0.4,0,8.9,0.4,11.4,5.9c0.8,1.9,0.7,3.9-0.3,6
					c-2.2,4.3-8.2,7.9-16.2,9.7C163.8,427.9,159,428.4,153.5,428.4z"/>
			</g>
		</g>
		<g id="XMLID_243_">
			<g id="XMLID_210_">
				<path id="XMLID_271_" fill="#F982C6" d="M456.8,345c-0.2,6.7-1.2,9.9-1.7,11.2h0c-1.1,0-2.3,0.1-3.4,0.3
					c-0.2-0.6-0.2-1.3,0.1-1.9c0.1-0.1,1.2-2.6,1.4-9.7c0.2-4.7-0.3-7.8-0.5-8.7c1.2,0,2.4,0,3.7,0C456.7,337.8,457,340.8,456.8,345
					z"/>
			</g>
			<g id="XMLID_211_">
				<path id="XMLID_270_" fill="#F982C6" d="M488.4,343.4c0,1.5-0.2,4.3-0.9,8c-1.2,5.6-2.6,8.3-3.3,9.4c-1.1-0.4-2.3-0.8-3.6-1.2
					c0-0.2,0.2-0.5,0.4-0.8c0.1-0.1,1.8-2.9,3-8.7c1-4.7,0.8-7.6,0.8-7.7c0-0.3,0-0.6,0.1-0.9C486.1,342.2,487.3,342.8,488.4,343.4z
					"/>
			</g>
		</g>
		<g id="XMLID_242_">
			<g id="XMLID_200_">
				<path id="XMLID_268_" fill="#F982C6" d="M341,371.5c-0.1,6.7-0.6,12.3-0.9,14.4H340c-1.2,0-2.3,0-3.5,0h0
					c0.1-1.1,0.8-7.3,0.9-14.5c0.1-7.7-0.9-12.3-1-12.3c-0.1-0.3-0.1-0.6-0.1-0.9c1.2-0.1,2.4-0.2,3.6-0.3
					C340.2,358.9,341.1,363.8,341,371.5z"/>
			</g>
			<g id="XMLID_207_">
				<path id="XMLID_269_" fill="#F982C6" d="M370.3,367.8c-0.1,7.6-0.6,12.1-1.1,14.7c-1.3,0.3-2.6,0.6-3.9,0.8c0,0,0-0.1,0-0.1
					c0-0.1,1.2-4,1.4-15.4c0.1-7.3-0.4-12-0.6-13.6c1.2-0.2,2.4-0.5,3.6-0.7C369.9,355.4,370.4,360.3,370.3,367.8z"/>
			</g>
			<g id="XMLID_206_">
				<path id="XMLID_254_" fill="#F982C6" d="M313.5,372.5c-0.1,5.3-0.4,10-0.7,12.7c-0.9,0-1.9-0.1-2.8-0.1c-0.3,0-0.5,0-0.8,0
					c0.3-2.6,0.6-7.3,0.7-12.6c0.1-7.7-1-12.3-1-12.3c-0.1-0.3-0.1-0.6-0.1-0.9c1.2,0,2.4,0,3.6,0
					C312.8,360.7,313.6,365.4,313.5,372.5z"/>
			</g>
		</g>
		<g id="XMLID_256_">
			<g id="XMLID_264_">
				<path id="XMLID_262_" fill="#F982C6" d="M205.9,361c0,3.8-0.2,7.2-0.4,9.9c-1.1-0.1-2.3-0.3-3.6-0.4c0.2-2.6,0.4-5.9,0.4-9.5
					c0.1-5.6-0.5-9.5-0.8-11.3c1.2,0.2,2.5,0.5,3.8,0.7C205.7,352.8,206,356.4,205.9,361z"/>
			</g>
			<g id="XMLID_261_">
				<path id="XMLID_265_" fill="#F982C6" d="M237.7,364.1c-0.1,6-0.4,10.1-0.8,12.8c-0.1,0-0.2,0-0.3,0c-1.1-0.2-2.2-0.4-3.3-0.6
					c0.3-2.4,0.7-6.3,0.8-12.2c0-3.8-0.1-6.8-0.2-9.1c1.2,0.1,2.4,0.3,3.6,0.4C237.7,357.6,237.7,360.6,237.7,364.1z"/>
			</g>
			<g id="XMLID_257_">
				<path id="XMLID_259_" fill="#FF97C9" d="M179.3,356.9c-0.1,4.6-0.3,8.7-0.6,11.5c-1.2-0.1-2.4-0.1-3.6-0.2
					c0.2-2.7,0.5-6.8,0.6-11.4c0.1-5.1-0.4-8.9-0.7-10.9c1.2,0.1,2.4,0.2,3.7,0.3C179,348.7,179.3,352.3,179.3,356.9z"/>
			</g>
		</g>
		<g id="XMLID_218_">
			<path id="XMLID_158_" fill="#FF97C9" d="M477.1,396.3c-0.2,5.9-18.7,11.7-41.2,5.6s-48.4-18.5-68.2-57.6
				c-9.4-18.6-7.2-31.9-0.3-40.6c7.6-9.6,21.1-13.4,30.9-12.1c16.4,2.3,25.7,8.1,31.1,18.7c5.4,10.6,1.6,27.2,12.2,45
				c8.9,15,28.1,29.6,33.9,37.3C476.6,394.2,477.2,395.4,477.1,396.3z"/>
			<path id="XMLID_147_" fill="#F982C6" d="M477.1,396.3c-0.2,5.9-18.7,11.7-41.2,5.6s-48.4-18.5-68.2-57.6
				c-9.4-18.6-7.2-31.9-0.3-40.6c1.6,12.1,9.3,47.2,44.6,70.8c35,23.3,56.4,23.2,63.5,18.2C476.6,394.2,477.2,395.4,477.1,396.3z"/>
			<g id="XMLID_23_">
				<path id="XMLID_31_" fill="#F774B9" d="M455.9,404.6c-9.7,0-24-2.5-42.9-12.2c-26.3-13.5-42.4-33.3-47.8-58.7
					c-6.6-30.6,12.6-40.5,12.8-40.6c0.8-0.4,1.7-0.1,2.1,0.7c0.4,0.8,0.1,1.7-0.7,2.1c-0.7,0.4-17.2,9-11.1,37.2
					c5.3,24.5,20.8,43.5,46.2,56.6c31.7,16.3,49.7,11.7,54.4,9.9c3.4-1.3,4.8-2.8,5-3.4c0.3-0.8,1.2-1.2,2-0.9
					c0.8,0.3,1.2,1.2,0.9,2c-0.7,1.9-3.2,3.8-6.8,5.1C467.8,403.2,463.1,404.6,455.9,404.6z"/>
			</g>
		</g>
		<g id="XMLID_241_">
			<path id="XMLID_87_" fill="#FF97C9" d="M227.3,406.8c-2.7,2.5-6.2,4.7-10.6,6.4c-24.3,9.2-60.8,0.9-81.3-9.2
				c-15-7.4-23.2-15.9-25.6-28.1c-0.9-4.5-1-9.4-0.3-15c2.5-20.8,15.9-25.3,29.7-25.7c13.1-0.3,20.9,9,22.1,10.5
				c0,0-6.2,2.8-3.9,9.1c2.3,6.3,15.6,0.6,26.2-1.5c10.6-2,28.4-0.9,41.2,12.6C235.3,377,239.5,395.5,227.3,406.8z"/>
			<path id="XMLID_276_" fill="#FFCAE8" d="M227.3,406.8c-2.7,2.5-6.2,4.7-10.6,6.4c-12.7,4.8-28.8,4.9-44.1,2.3
				c-1.7-0.3-3.3-0.6-5-0.9c-8.9-1.8-17.3-4.4-24.6-7.3c-1.9-0.7-3.6-1.5-5.3-2.3c-0.8-0.4-1.5-0.7-2.2-1.1
				c-15-7.4-23.2-15.9-25.6-28.1c4.7,4.2,12.8,10,26.7,15.9c1.1,0.5,2.3,1,3.5,1.4c5.2,2.1,11.1,4.2,17.8,6.2
				c2.3,0.7,4.6,1.3,6.8,1.9c1.2,0.3,2.4,0.6,3.6,0.9C192,407.9,212.6,408,227.3,406.8z"/>
			<g id="XMLID_228_">
				<g id="XMLID_201_">
					<path id="XMLID_251_" fill="#FF97C9" d="M172.6,415.5c-1.7-0.3-3.3-0.6-5-0.9c-0.8-1.5-1.6-3.5-2.2-6c-0.7-3.1-0.9-5.6-0.8-7.3
						c1.2,0.3,2.4,0.6,3.6,0.9c0,1.2,0.2,2.9,0.6,4.9c1,4.4,3.1,7,3.2,7C172.4,414.5,172.6,415,172.6,415.5z"/>
				</g>
				<g id="XMLID_215_">
					<path id="XMLID_250_" fill="#FF97C9" d="M143,407.3c-1.9-0.7-3.6-1.5-5.3-2.3c-0.6-1.6-1.1-3.7-1.3-6.3c-0.2-3-0.1-5.2,0.1-7
						c1.1,0.5,2.3,1,3.5,1.4c-0.1,1.3-0.2,2.9,0,5.1c0.4,5.8,2.7,8.5,2.7,8.5C142.9,407,143,407.2,143,407.3z"/>
				</g>
			</g>
			<g id="XMLID_227_">
				<path id="XMLID_75_" fill="#F982C6" d="M129.3,349.3c-3.7,1.9-7.9,7.5-8.3,11.3c-0.5,3.7,0.5,5.9,5.4,5.5c5-0.3,9-8.3,9-12.6
					C135.4,349.2,133,347.4,129.3,349.3z"/>
				<path id="XMLID_91_" fill="#F982C6" d="M133.4,368.2c-2,0.9-4.3,3.7-4.6,5.6c-0.2,1.8,0.2,2.9,3,2.7c2.7-0.2,5-4.1,5-6.2
					S135.5,367.3,133.4,368.2z"/>
				<path id="XMLID_92_" fill="#F982C6" d="M151,371.3c-1.4,0.7-3,2.8-3.2,4.2c-0.2,1.4,0.2,2.2,2.1,2.1c1.9-0.1,3.4-3.1,3.4-4.7
					S152.4,370.6,151,371.3z"/>
			</g>
			<g id="XMLID_27_">
				<path id="XMLID_28_" fill="#F774B9" d="M218.6,362.4c-0.4,0-0.8-0.2-1.1-0.5c0,0-5.7-5.4-20.8-7.2c-6-0.7-13.4,0.9-20,2.3
					c-8.4,1.8-15.6,3.4-19.3,0.4c-1.6-1.2-2.4-3.2-2.4-5.7c0-1.9,0.7-3.5,2.1-4.8c4.6-4.3,15.6-3.4,16.8-3.2
					c0.9,0.1,1.5,0.8,1.4,1.7c-0.1,0.9-0.8,1.5-1.7,1.4c-3-0.3-11.4-0.4-14.4,2.4c-0.8,0.7-1.1,1.5-1.1,2.5c0,1.6,0.4,2.6,1.2,3.3
					c2.6,2.1,9.5,0.6,16.7-1c6.8-1.5,14.6-3.2,21.1-2.4c16.3,2,22.4,7.9,22.6,8.1c0.6,0.6,0.6,1.6,0,2.2
					C219.4,362.2,219,362.4,218.6,362.4z"/>
			</g>
		</g>
	</g>
</g>
<g id="MOUTH">
	<g id="XMLID_77_">
		<path id="XMLID_230_" fill="#1C3177" d="M213.4,398.1c-10.4,0-18.3-3.3-18.7-3.5c-0.9-0.4-1.3-1.4-0.9-2.2
			c0.4-0.9,1.4-1.3,2.2-0.9c0.1,0,10.8,4.4,23,2.8c10-1.3,12.1-4.5,12.2-4.6c0.4-0.8,1.5-1.1,2.3-0.7c0.8,0.4,1.1,1.5,0.7,2.3
			c-0.3,0.5-2.9,4.7-14.7,6.3C217.4,398,215.3,398.1,213.4,398.1z"/>
	</g>
</g>
<g id="EYE_1">
	<g id="XMLID_236_">
		<g id="XMLID_74_">
			<path id="XMLID_235_" fill="#1C3177" d="M203.6,379c-5,0-7.5-3.4-8.2-5.4c-0.3-0.9,0.2-2,1.1-2.3c0.9-0.3,2,0.2,2.3,1.1
				c0.1,0.4,1.4,3.4,5.6,2.9c3.9-0.4,4.2-2.9,4.2-3.4c0-1,0.8-1.8,1.8-1.8c1,0,1.8,0.8,1.8,1.8c0,2.1-1.6,6.4-7.5,7
				C204.4,378.9,204,379,203.6,379z"/>
		</g>
	</g>
</g>
<g id="EYE_2">
	<g id="XMLID_76_">
		<path id="XMLID_232_" fill="#1C3177" d="M225.1,378.6c-0.3,0-0.7,0-1-0.1c-5-0.7-6-5.2-6.1-5.4c-0.2-1,0.4-1.9,1.4-2.1
			c1-0.2,1.9,0.4,2.1,1.4c0.1,0.2,0.6,2.3,3.1,2.6c0.5,0.1,1.2,0.1,1.6-0.2c0.4-0.3,0.5-0.9,0.5-1c0.1-1,1-1.7,2-1.6
			c1,0.1,1.7,1,1.6,1.9c0,0.2-0.2,2.1-1.8,3.4C227.7,378,226.7,378.6,225.1,378.6z"/>
	</g>
</g>
<g id="BALOON">
	<g id="XMLID_142_">
		<path id="XMLID_166_" fill="#99ADF9" d="M244.7,341.2c-0.3,2-0.8,4.2-1.6,6.5c-3,8.8-9.6,17.9-17,17.6
			c-5.5-0.3-13.4-11.4-15.4-23.7c0,0,0-0.1,0-0.1c-2.1-12.3,0.5-26,16.4-26C242.9,315.4,246.1,331.3,244.7,341.2z"/>
		<path id="XMLID_164_" fill="#7C99F2" d="M243.1,347.6c-3,8.8-9.6,17.9-17,17.6c-5.5-0.3-13.4-11.4-15.4-23.7c0,0,0-0.1,0-0.1
			c2.2,3.5,5.8,7.1,11.3,9.7C230.8,355.4,238.5,351.4,243.1,347.6z"/>
		<path id="XMLID_139_" fill="#C7D4FF" d="M225.5,317.8c-3.3-3-9.7,0.7-12.5,7.3c-2.9,6.6-2.1,12.8,1.1,13.6
			c3.2,0.8,1.7-6.5,6.3-10.7C224.9,323.7,228.2,320.2,225.5,317.8z"/>
	</g>
</g>
<g id="ORNAMENT_2">
	<circle id="XMLID_140_" fill="#D2E9FF" cx="170.6" cy="294.8" r="4.8"/>
</g>
<g id="ORNAMENT_1">
	<circle id="XMLID_88_" fill="#D2E9FF" cx="163" cy="278.5" r="2.8"/>
</g>
<g id="CLOD_1">
	<path id="XMLID_128_" fill="#D2E9FF" d="M91.3,262.2c-2.7,2,0.4,5,0.2,5.7s-6.9,0.2-10.4,1.7c-3.6,1.5-1.9,5.6,3.7,6.1
		s20.8,1.6,24.5-1c3.7-2.6,1.3-4.9-0.7-5.8c-2-0.9-6-0.8-5.6-2.1s5.4-1.2,3.8-3.9C105.8,261.1,95.4,259.3,91.3,262.2z"/>
</g>
<g id="CLOD_2">
	<path id="XMLID_90_" fill="#D2E9FF" d="M194.4,230.3c1.9,5.7-9,4.7-8.4,6.4c1.2,3.2,6.5,0.4,6.7,5.9s-5.4,5.1-19.4,5.7
		c-6.5,0.3-13.2-1.7-12.8-6.2c0.4-4.5,10.8-2.9,9.5-5.3c-1.3-2.4-2-4.1,0.1-6.7c2.1-2.6,7.3-2.7,13.7-2.3
		C190.1,228.2,193.8,228.7,194.4,230.3z"/>
</g>
<g id="CLOD_3">
	<path id="XMLID_126_" fill="#D2E9FF" d="M172.9,181.2c-17.4,0.8-13.8-0.2-18.3,2.1c-4.5,2.3,1.8,6.2-0.9,7.4
		c-2.7,1.2-11.7,2.9-11.3,5.4c1.1,7.6,38.3,7.4,39.9,0.8c1-4.2-5.7-3.7-5-5.4c0.7-1.7,12.7-0.6,14.3-5.6S181.3,180.8,172.9,181.2z"
		/>
</g>
<g id="Z1">
	<g id="XMLID_117_">
		<path id="XMLID_286_" fill="#1C3177" d="M152.7,291.9c-4,6.9-14.5,15.8-18.6,11c-0.1-0.2-0.3-0.3-0.4-0.5c-3-4.3-0.8-12.6-0.1-15
			c0.1-0.3,0.2-0.5,0.2-0.6c-0.3,0.6-3.2,6.5-4.8,8c-2.2,2-6.4,2.5-7.8-0.8c-0.2-0.6-0.4-1.2-0.4-2c-0.2-4,2.6-7.8,7.9-12.9
			c5.3-5.1,12.9-9.4,15.5-2.5c2.4,6.8-2.7,17.1-3,17.7c0.3-0.5,5.1-8.1,7.6-9.3c1.3-0.6,3.1-0.6,4.3,0.3
			C154.4,286.1,154.9,288.2,152.7,291.9z"/>
		<path id="XMLID_282_" fill="#0C215B" d="M133.7,287.4c0.1-0.4,0.2-0.7,0.2-0.7s-3.1,6.5-4.8,8c-2.2,2-6.4,2.5-7.8-0.8
			c1.3,0.3,3.1,0.2,4.9-1.4c3.3-2.8,9.8-12.5,9.8-12.5S135,283.7,133.7,287.4z"/>
		<path id="XMLID_280_" fill="#0C215B" d="M152.7,291.9c-4,6.9-14.5,15.8-18.6,11c-0.1-0.2-0.3-0.3-0.4-0.5c0.9,0,3.2-0.1,6.6-1.8
			c4.6-2.2,8.5-8.4,10.9-11.9c0.9-1.3,1.5-2.5,1.8-3.6C154.4,286.1,154.9,288.2,152.7,291.9z"/>
	</g>
</g>
<g id="Z2">
	<g id="XMLID_96_">
		<path id="XMLID_283_" fill="#1C3177" d="M147.9,257.1c-4.3,3.9-14.1,6-19.2,5.6c-4.1-0.4-7.6-2.6-6.9-6.4c0.2-0.9,0.5-1.9,1.2-2.9
			c3.4-5.5,11.9-11.1,11.9-11.1l-0.7,0.3c-2,0.7-7.7,2.6-11.5,1.7c-2.9-0.7-4.8-3.1-4.5-5.8c0.2-1.5,1.1-3.1,3.1-4.4
			c7.7-5,19.1-6.6,23.8-6c4.7,0.6,6.6,3.7,5.4,8.9c-1.2,5-10.6,12.4-11.2,12.9c0.5-0.1,7.8-2.3,9.7-0.8c0.7,0.6,1.4,1.4,1.6,2.3
			C151,252.9,150.5,254.7,147.9,257.1z"/>
		<path id="XMLID_278_" fill="#0C215B" d="M139.7,237.9l-4.8,4.5l-0.7,0.3c-2,0.7-7.7,2.6-11.5,1.7c-2.9-0.7-4.8-3.1-4.5-5.8
			c0.7,0.9,2.7,2.4,7.5,1.9C132.2,239.7,139.7,237.9,139.7,237.9z"/>
		<path id="XMLID_274_" fill="#0C215B" d="M147.9,257.1c-4.3,3.9-14.1,6-19.2,5.6c-4.1-0.4-7.6-2.6-6.9-6.4c1.3,1.1,4.2,2.5,10.2,2
			c9.3-0.9,16.9-5.4,18.7-6.8C151,252.9,150.5,254.7,147.9,257.1z"/>
	</g>
</g>
<g id="Z3">
	<g id="XMLID_131_">
		<path id="XMLID_281_" fill="#1C3177" d="M126.8,210.8c-6.6,6-18.4,13.7-22.8,14.9c-4.3,1.1-9.4,0.9-10.2-5.9c0,0,0-0.1,0-0.1
			c-0.8-6.9,5-18.5,5-18.5s0,0-0.1,0.1l0,0c-0.9,0.9-9.1,8.5-13.7,6.5c-1.9-0.8-3.2-1.9-4-3.1c-2.7-4-0.4-9.7,4.4-14.2
			c6.4-5.9,19.1-13.6,23.4-15.2c4.3-1.6,8.2-1.5,8.6,7.6c0.4,8.2-5.7,20.2-6.8,22.3c0.5-0.8,2-3,4.9-5.1c3.7-2.5,10.8-7.3,15-3.8
			c1.2,1,1.9,2.3,2.1,3.8C132.9,203.1,131.2,206.9,126.8,210.8z"/>
		<path id="XMLID_277_" fill="#0C215B" d="M102.4,193.5l-3.7,7.8l0,0c-0.9,0.9-9.1,8.5-13.7,6.5c-1.9-0.8-3.2-1.9-4-3.1
			c1.3,0,3.2-0.3,5.6-1C92.3,201.9,102.4,193.5,102.4,193.5z"/>
		<path id="XMLID_275_" fill="#0C215B" d="M126.8,210.8c-6.6,6-18.4,13.7-22.8,14.9c-4.3,1.1-9.4,0.9-10.2-5.9
			c1.8,1.4,5,2.5,10.6,0.3c8.9-3.6,24-15.2,28.2-19.9C132.9,203.1,131.2,206.9,126.8,210.8z"/>
	</g>
</g>
</svg>
